<?xml version="1.0" encoding="utf-8"?>
<!-- Generator: Adobe Illustrator 21.0.2, SVG Export Plug-In . SVG Version: 6.00 Build 0)  -->
<svg version="1.1" id="Layer_7" xmlns="http://www.w3.org/2000/svg" xmlns:xlink="http://www.w3.org/1999/xlink" x="0px" y="0px"
	 viewBox="0 0 632.9 237" style="enable-background:new 0 0 632.9 237;" xml:space="preserve">
<g>
	<polygon points="134.8,82.8 134.8,82.2 133.8,82.2 134.5,82.8 	"/>
	<path d="M503.3,94.2l1.4-0.2l0.3,0.2h0.2v-0.8l-0.2-0.2h0.6c0.9,0.7,1.7,1.1,2.4,1.1h19.7l2.7-0.2l2.1,0.2h6.9v-0.5l-1.2-0.3h-0.4
		l0.7-1.6h-0.3c0-1-0.2-1.4-0.6-1.4c0,0.7-0.2,1.1-0.6,1.1h-0.6l0.3-0.2l-0.6-1.4v-0.2l1.5,0.2h1.5l0.3-0.2c0-0.9,0.2-1.4,0.6-1.4
		c0.3,0,1.4-1.2,3.3-3.7h0.9v0.6c1,0,1.5,0.2,1.5,0.5c1.4,0,2.1-0.7,2.1-2.2l-0.9-0.6H546l-0.2,0.3c0,0.5-0.2,0.8-0.6,0.8h-0.4
		l-0.2-0.8h0.2c0-0.4-0.6-0.6-1.7-0.6c0-1,0.4-1.7,1.2-2h0.2c0.4,0,0.6,0.5,0.6,1.4h2.1l0.6-0.6v-0.3l-0.3-0.2h0.3
		c0.3-1.3,1.2-1.9,2.7-1.9l0.6,0.6v0.2l-0.9,0.8l0.6,0.9l1.9-0.6h0.2l0.2,0.2v-0.2c0.5,0.6,1.2,0.9,2.1,0.9v1.4l0.6,0.6h0.9v-0.3
		l0.9-1.4l-0.2-1.4c-0.4,0-0.6,0.3-0.6,0.9l-1.5-0.3v-0.2c2-0.7,2.9-1.3,2.9-1.7c-0.8-0.2-1.3-0.7-1.7-1.4l-0.3,0.4h-0.3l-0.3-0.4
		h-0.6l-0.6,2H554c0-1.1-0.2-1.6-0.6-1.6h-1.5v-0.6l0.9-0.2v0.2l0.6-0.6v-0.6h-11.6l-1.5,1.4H540v-0.2l0.3-0.2v-0.3l-0.6-0.6h-6.6
		c-0.4,0-0.6,0.3-0.6,0.9h-0.3c0-0.6-0.2-0.9-0.6-0.9H514l-0.9,0.6h-0.9l-0.9-0.6H511v2l-1.9-2h-5.3c-0.4,0-0.6,0.4-0.6,1.1H503
		v-0.6h-2.1c-0.4,0-0.6,0.7-0.6,2c-1.2,0.2-1.8,0.5-1.8,0.8v1.7h1.8c0.4,0,0.6-0.6,0.6-1.7h2.1l0.3-0.2l0.3,2.2l1.4-0.3
		c0.8,0,1.2-0.6,1.2-1.9l0.6,0.6v0.2l-0.3,0.2l1.8,0.6h0.3l-0.3,0.9v0.6c0,0.4,0.7,0.6,2.1,0.6v0.2h-0.3l-1.2,0.6v0.9h0.6l0.3-0.3
		v1.4l-1.7-0.6h-0.2l-0.3,0.2l0.3-1.4v-0.2l-0.6-0.6h-0.9c-0.1,0.7-0.6,1.3-1.5,1.7c0.3,1.5,0.9,2.2,1.8,2.2h0.3l-0.3,0.9l2.4,3.1
		l0.6-0.6l1.9,0.9V92l-2.4,0.6H508V92h0.6v-0.2c-1-0.4-1.5-0.9-1.5-1.7h-0.3c-1.2,0-1.8,0.5-1.8,1.4h-0.3v-0.6l1.5-1.7v-1.1h-1.8
		v1.1h-0.2l-1.9-1.1c0-1-0.3-1.4-0.9-1.4v-1.4c0-0.4-0.7-0.7-2-0.9l-0.4,1.7c0.7,1.1,1.3,1.7,1.8,1.7v0.3l-0.6,0.6h-0.3v-0.3
		l-0.5-1.1h-1.2v1.7h0.6l0.7,1.6h-1l-0.2-0.2l-0.6,0.9v1.4l1.9,1.6H503.3z M548.1,77.7l0.3-0.2l0.9,0.2v0.6l-0.3,0.3l-0.9-0.6V77.7z
		 M544.7,78.4l0.4,0.3v0.2l-0.4,0.2l-0.8-0.8H544.7z M520,93.4h-0.3v-0.6c-0.5,0-1.2,0.4-2.1,1.1v-0.8c0.8,0,1.2-0.3,1.2-0.8h0.9
		l0.3,0.2V93.4z M522.4,91.4h-1.4l-0.3-1.7c-0.8,0-1.2-0.2-1.2-0.6v-0.5h0.3c0.7,0.5,1.5,0.8,2.1,0.8h0.2l0.3-1.7h0.6L522.4,91.4z
		 M531.9,90.6H531l0.6-0.5h0.3V90.6z M533.7,92.3c-0.8-0.3-1.2-0.6-1.2-0.9h1.2V92.3z M532.5,80.5h0.6l-0.6-2.8h0.3l0.3-0.2h0.3
		l0.2,1.4h-0.2l0.6,1.6l1.5-0.2h1.2v-0.6h0.6l0.3,1.4h0.2v-0.8l2.4,1.4v1.1c-1.4-0.3-2.1-0.6-2.1-1.1v-0.3l-0.9,0.3H537v-0.6h-0.6
		v1.2h1.2v1.9l0.9,0.3v0.3l-0.3,0.3l1.7,0.2v0.6h-0.2l-1.5-0.3v0.3l-0.4,0.2V87h0.7v0.9l-2.4-1.1c-0.5,0-0.8,0.5-0.9,1.4
		c-1,0-1.6,0.2-1.6,0.6h-0.2v-0.6l0.2-0.3l-2.4-0.3V87l1.5,0.3h0.3l0.3-0.3l0.2,0.3h0.3l1.2-1.1v-0.6h-0.9l0.6-0.5h0.6l0.3,0.2
		l0.9-0.9v-1.9l-0.9-0.2l-1.1,0.2v-1.4h-2.2V80.5z M532.8,81.4l-0.3,0.9c0,0.3,0.5,0.5,1.5,0.5l-0.3,1.7h-1.2v-0.3h0.6l-0.6-1.1
		l-0.3,0.2c-1-0.2-1.4-0.5-1.4-0.8V82C531.7,82,532.4,81.8,532.8,81.4z M530.1,78.1h0.6l0.9,0.8v0.2h-1.5l-0.3-0.2L530.1,78.1z
		 M528.1,88.1h0.9v1.1h-0.6l-0.2-0.8V88.1z M526.5,79.2h0.6l-0.3,0.3l0.3,1.4l-0.6,0.6h-0.2l-0.6-1.4L526.5,79.2z M527.1,87.8v0.3
		h-0.3l-0.8-0.9v-1.1h0.6L527.1,87.8z M525.7,91.2l2.1-0.3h0.3l0.9,0.9c-0.5,1-1.1,1.5-1.9,1.6c0-0.9-0.5-1.4-1.4-1.4V91.2z
		 M523.9,90.3l1.2,0.2v0.3h-1.2V90.3z M522.9,78.9l0.3-0.2h-0.3v-0.3h0.3l0.3,0.3l-0.3,0.8h-0.3V78.9z M522.7,79.7h0.2l-0.9,0.8
		h-0.2L522.7,79.7z M521.2,82.3h0.2l0.3,0.8v0.2h-0.6V82.3z M517.3,77.2h0.2l0.3,0.9v0.2l0.9-0.2h0.3l0.3,0.2v-0.6h0.6v0.9l-0.6,0.5
		l0.6,2.6h-0.6c0-1.7-0.7-2.9-2.1-3.6V77.2z M514.9,79.2l0.9,1.1l-0.3,0.2l-1.8-1.4H514.9z M512.5,90.3h0.3c0,1,0.5,1.4,1.5,1.4
		l-0.3,0.8h-1.8L512.5,90.3z M512.2,79.7v1.4h-0.3l-0.2-0.8L512.2,79.7z M505.6,78.7c-0.9,0-1.6,0.2-2,0.5h-0.3v-1.4h0.6l0.3,0.4
		l0.6-0.6c0,0.6,0.3,0.9,0.9,0.9V78.7z M509.2,80.9l-0.5-0.6l0.5-0.6h0.3L509.2,80.9z M511,79.7h-0.6v-0.2l0.6-0.6h0.3v0.6L511,79.7
		z M500.9,91.7h0.2l0.9,0.8v1.1h-0.3c-0.4,0-0.7-0.6-0.9-1.7V91.7z"/>
	<polygon points="504.2,83.3 504.2,82.5 503.9,82.3 502.1,82.8 502.6,83.3 	"/>
	<path d="M523,125.2c-0.9-0.5-1.3-1-1.3-1.6h-0.6v2.9l0.3,0.2v0.3C522.4,126.9,523,126.3,523,125.2z"/>
	<polygon points="559.2,76.9 559.2,76.4 556.2,76.4 555.5,76.9 557.6,77.2 	"/>
	<polygon points="498.5,77.2 498.8,76.9 498.2,76.4 497.9,76.4 497.6,76.7 498.2,77.2 	"/>
	<path d="M562.7,79.7l1.4-0.4v-2.5l-1.8-0.5H560v1.1h0.3C561.3,79,562.1,79.7,562.7,79.7z"/>
	<path d="M460.3,105.3l8.5-0.9v0.3l10.2-1.2v-0.9c-1.5-7.8-2.8-11.8-3.9-11.8c0-1.1-1.6-3.3-4.9-6.7c-6.8-5-14.5-7.5-23.2-7.5V77
		l-0.3,0.3v9.7l0.3,3l-0.3,1.8v0.6c4.6,0.8,7.7,1.9,9.3,3.3C458.1,97.2,459.5,100.4,460.3,105.3z M476,95.3h0.3l0.6,1.8v0.3
		l-0.9-0.6V95.3z M467,88.7h1.8v-0.6h2.1l0.6,0.6v0.9l-0.9,0.3l-0.6-0.9l-1.5,0.2H467V88.7z M464.8,91.1h1.2v0.6h-1.2V91.1z
		 M461.8,80.3h0.3l-1.2,0.9L461.8,80.3z M455.5,79.6l-0.9-0.2v-0.3h0.9V79.6z"/>
	<path d="M475.1,123.1l-0.6,0.6v0.6l0.6,0.6h1.5c0-0.8-0.4-1.4-1.2-1.8H475.1z"/>
	<path d="M331.7,105.3l8.5-0.9v0.3l10.2-1.2v-0.9c-1.5-7.8-2.8-11.8-3.9-11.8c0-1.1-1.6-3.3-4.9-6.7c-6.8-5-14.5-7.5-23.2-7.5V77
		l-0.3,0.3v9.7l0.3,3l-0.3,1.8v0.6c4.6,0.8,7.7,1.9,9.3,3.3C329.5,97.2,331,100.4,331.7,105.3z M347.4,95.3h0.3l0.6,1.8v0.3
		l-0.9-0.6V95.3z M338.4,88.7h1.8v-0.6h2.1l0.6,0.6v0.9l-0.9,0.3l-0.6-0.9l-1.5,0.2h-1.5V88.7z M336.3,91.1h1.2v0.6h-1.2V91.1z
		 M333.2,80.3h0.3l-1.2,0.9L333.2,80.3z M327,79.6l-0.9-0.2v-0.3h0.9V79.6z"/>
	<polygon points="206.5,105.3 214.8,100.9 223,105.3 221.4,96.1 228.1,88.6 218.9,88.3 214.8,79.9 210.7,88.3 201.4,88.6 
		208.1,96.1 	"/>
	<path d="M346.6,123.1l-0.6,0.6v0.6l0.6,0.6h1.5c0-0.8-0.4-1.4-1.2-1.8H346.6z"/>
	<polygon points="540.7,133.9 540.4,136.1 540.7,136.4 541.3,136.4 541.3,133.3 540.7,133.3 	"/>
	<path d="M540.4,100.3h0.9v-2.5l-0.6-0.6h-1.9l-0.9,0.6l-0.6-0.6H535c-0.4,0-0.6,0.3-0.6,0.9h-1.9c0-0.6-0.2-0.9-0.6-0.9h-1.6
		l-1.9,1.6H528v-1.6h-3.8v0.9h-1.9v-0.3h0.7v-0.6h-1.3l-0.6,0.6v0.3l0.6,0.9v1.6h-0.6v2.8l1.2,1.8c0,0.7-0.3,1-0.9,1l-0.3,0.3v2.2
		l0.6,0.6h1.3l0.9-0.6h0.9l-0.3,0.3l-1.6,0.6l-0.7,1.8h-0.6V110h-0.6v11.8l0.6,0.6h0.3l1.9-0.6v-0.4l1.6,0.4h2.6
		c0,0.4-0.4,0.6-1.2,0.6v0.6h-2.2l-0.6,0.6l0.3,1.3c-0.8,0-1.2,1.1-1.2,3.4l-0.4-0.4h-0.9l-0.6,0.7v2.4h0.9l-0.3,0.4v0.3l0.3,0.9
		l-0.9,1.5v31.3h20.3V137h-1.6l-1.6,1c0-0.9-0.4-1.3-1.2-1.3c0-1.2-0.2-1.8-0.6-1.8h-1.6l-0.9,0.6l-0.6-1l0.3-0.3h1.9v-0.6
		c1,0,1.8-0.5,2.6-1.5l0.6,0.9c-0.6,0-0.9,0.2-0.9,0.6v1.9h1.9l0.6-0.6v-1.6c-0.7,0-1-0.2-1-0.6c0.9,0,1.6-0.5,2.2-1.6v-3.7
		l-2.2-2.4h1.6v1.2h0.6v-13.7c-0.4-0.9-0.9-1.3-1.6-1.3l0.6-0.6l0.9,0.3v-8.7h-0.6c0,1-0.2,1.6-0.6,1.6l-1.9,0.9v-0.3
		c0-0.3,0.6-0.6,1.9-0.9l0.3-1.6v-0.3l-0.9-0.9h-0.7l-1.9,1.6v-0.3l1.6-1.9l-0.3-0.9h0.3C539.8,99.1,540.4,99.5,540.4,100.3z
		 M539.5,139.5l1.2,0.3l-0.3,1.6h-0.3l-0.6-1.6V139.5z M538.8,146h0.7l0.3,0.9l-0.7,1.9h-0.3V146z M540.1,114.9l0.3,1.3h-0.9
		l-0.4-1.3H540.1z M538.8,129.8h1.9v0.9l-1.9-0.3V129.8z M535.3,99.4h1v0.6h-1V99.4z M534.7,119.9h1.3l-0.4,0.3v0.2l-0.9-0.2V119.9z
		 M531.8,103.1h1.6l0.3,1.6c-0.4,1-0.9,1.5-1.3,1.6v-0.3l0.7-0.9v-0.6c0-0.6-0.4-0.9-1.3-0.9V103.1z M532.1,121.1
		c-2.3-0.2-3.5-0.5-3.5-0.9v-0.3c0.9,0,1.3-0.4,1.3-1.2h0.6C530.6,119.7,531.1,120.5,532.1,121.1z M531.2,123.4l-0.3,0.9l-1.2-1.2
		h0.9l0.3,0.3H531.2z M530.6,105.6v0.6l-1.6-1V105h0.7C529.6,105.4,530,105.6,530.6,105.6z M529,101.3h1v0.6h-1.6L529,101.3z
		 M528.6,111.9l0.3,0.9v0.3h-0.3v-0.6c-0.6,0-0.9-0.2-0.9-0.6H528.6z M526.2,99.1l0.9,0.3l-0.3,1.2l-1.3-0.6L526.2,99.1z M527.4,105
		h-0.9v-0.6h0.3L527.4,105z M524.2,120.3c0-0.8-0.2-1.2-0.6-1.2l-1,0.3l-0.3-0.3v-1c0.7,0,1-0.3,1-0.9h0.3c0,1,0.5,1.6,1.6,1.6h1
		C525.7,119.5,525.1,120,524.2,120.3z M525.5,111.2h1l0.6,0.7h-0.9L525.5,111.2z M527.4,117.4l-0.6-0.6h0.6l0.6,0.6H527.4z
		 M524.2,139.5h-0.6V138h0.6V139.5z M521.7,136.7l1.6-1.2h0.9C524.2,136,523.4,136.4,521.7,136.7z M524.9,132.4h-0.3
		c-0.7-0.6-1.3-0.9-1.9-0.9v-0.4c0.7,0,1.3-0.4,1.9-1.2h0.3l0.9,0.9L524.9,132.4z M528,138h-0.6v-0.7l0.6-0.6V138z M528.6,132.4H528
		l-0.3-1.9l0.9-0.9V129l-1.6-0.3h-0.9l-0.7-1.6v-0.3l0.7-0.6h0.3l1.6,0.3l0.3-1.6h0.3v1.8c0.4,0,0.6,0.4,0.6,1.2l0.4,0.4h0.3
		l1.2-0.4v0.4c0,0.4-0.6,0.8-1.9,1.2l-0.3,1.5v0.4h0.7v0.3C529,131.8,528.6,132,528.6,132.4z M530.3,135.2l-0.3,0.9h-0.7v-1.2h1
		V135.2z M533.8,137.3c1.9,0.6,2.9,1.2,3.2,1.9l-0.3,0.3c-1-1-2.2-1.5-3.5-1.5L533.8,137.3z M533.8,130.5c-1.1,0.7-1.6,1.7-1.6,2.8
		c-0.3,0-0.6-0.5-0.9-1.5h-0.6v-0.3l3.2-2.2V130.5z M534.1,122.8l-0.3,0.3h-0.9v-0.3c0-0.3,0.7-0.9,2.2-1.6v0.7
		C534.4,121.8,534.1,122.1,534.1,122.8z M537.6,128h-0.3l-1.9-1.5l-0.9,0.2v-1.2h0.9c0,0.8,0.7,1.4,2.2,1.8V128z M536.6,124.2v-0.6
		c0.8,0.3,1.2,0.6,1.2,0.9L536.6,124.2z M538.2,116.8v1.2c-1.9-0.6-2.9-1.3-2.9-2.1v-0.3h0.3C535.7,116.4,536.6,116.8,538.2,116.8z"
		/>
	<path d="M563.3,92h0.2v0.3l-0.2,1.9h0.8v-2.7c-0.1,0-0.2,0-0.2,0h-0.3l0.6-1.7v-7.2h-0.2c-1.4,1.4-2.1,2.6-2.1,3.6h-0.6l-0.6-1.7
		v-0.6h0.2l0.3,0.2l0.6-0.5v-0.3h-1.2v-0.6l1.7-0.5l0.7,0.5l0.9-0.8v-0.9c-0.9,0-1.5-0.4-1.8-1.1h-0.2l-0.3,0.2h-1.2v-0.8h-1.6
		l0.4,1.1h0.6V80h0.3v0.5l-0.3,1.4h0.6v0.6h-0.9c-0.4,0-0.6-0.3-0.6-0.8h-0.6l0.3,0.2l-0.6,2.5v0.3l0.2,0.3c-1.1,0-1.7,0.5-1.7,1.6
		h-0.6c0-0.5-0.2-0.8-0.6-0.8h-1.8v-1.4l0.3-0.3l-0.6-0.5c-0.8,0-1.5,0.5-2.1,1.4h-0.3c0-1.2,0.7-2,2.1-2.3l-0.2-0.8h-1.3
		c-0.4,0-0.6,0.3-0.6,0.8l-1.5-0.2h-1.2v2.8h0.6l-0.6,1.1l1.8,0.5v0.6l-0.3,0.3h0.9l0.3,1.1l0.9,0.8h0.7l0.3-0.2v0.2l0.2,0.3
		l-1.8,0.2c0,0.7-0.3,1.1-0.9,1.1v-0.2l-0.2-0.3v-1.7h-1.2V87c-1,0-1.5-0.4-1.5-1.1l-1.7,0.6l-0.3-0.9h-0.4c-1.4,0-2.2,0.5-2.6,1.4
		v0.9l0.6,0.6h0.9l0.3-0.2v0.2l0.3,0.3l-1.5,0.2c-0.4,0-0.6-0.3-0.6-0.8h-1.2l-0.6,0.6v1.4c0,0.5,0.5,0.8,1.5,0.8v0.3
		c-1,0-1.5,0.2-1.5,0.6v0.8l0.6,0.8l0.3-0.2c1.4,0,2.1,0.4,2.1,1.1h14.3c0.4,0,0.6-0.3,0.6-0.8h0.6v0.8h3.5L563.3,92z M546.3,90.9
		v-1.1l0.9-0.2h0.3v0.2l-0.6,1.1H546.3z M548.6,92.8l-0.9,0.3h-0.3v-0.6l0.6-0.6l0.6,0.6V92.8z M554.6,90.9H554l-0.6-0.6l-0.8-3.9
		h0.8l0.3,1.9l-0.3,1.1c0.2,0.5,0.8,0.8,1.8,0.8L554.6,90.9z M556.7,90.1l-0.9,0.2v-0.6h0.9V90.1z M558.5,88.9l-1.4,0.8v-0.6
		c0.7,0,1.1-0.2,1.1-0.5h0.6v0.2H558.5z M558.8,92.8v-1.1l0.6,0.6L558.8,92.8z M559.2,91.4h-0.4v-0.9c0.8,0,1.2-0.5,1.2-1.4v-0.5
		l-0.3-0.3l0.9-0.9h0.2l0.3,0.3C560.7,89.5,560,90.7,559.2,91.4z"/>
	<path d="M471.4,158.1c-0.5,0-0.9-0.7-1.2-2.1c-1.3,0-2,0.5-2.1,1.5l0.3,0.3v0.3h-0.6v2.1h-0.3l-0.2,0.3v0.3c-1-0.2-1.6-0.5-1.6-0.9
		c1,0,1.6-0.5,1.6-1.5v-1.2c0.5,0,0.8-0.5,0.9-1.6l-0.3-0.3v-0.6l0.3-0.3l-0.3-0.3c-1.6,0.2-2.4,0.7-2.4,1.5h-0.6
		c0-0.6-0.6-1.4-1.8-2.4V153l0.3-0.3l-0.6-0.9l-0.3,0.3l-0.9-0.3c0-1.4-1-2.1-3-2.1c-1.2-1-2.4-1.5-3.6-1.5l-1.2,0.9v0.3h0.9
		c0.2,1,0.6,1.5,1.2,1.5l-0.2,0.3l0.2,1.5v0.9h-0.6l-0.3-1.8l-0.3,0.3l-0.9-0.6h-0.6v0.3l0.3,0.3H451v0.6h-0.3l-0.9-1.8h3V149
		c-2,0-3,0.4-3,1.2l-1.6-0.3c-1,0.2-1.5,0.5-1.5,0.9v1.8l2.1,1.8l-0.3,0.9c0.8,1.5,1.2,2.7,1.2,3.7h0.2l0.3-0.3h0.3v0.6l-0.9,0.9
		c0,1-0.2,1.5-0.6,1.5h-0.6l-1.5-0.3v0.3l-0.3,0.3v3.6l0.3,0.3c7.4-0.3,11.1-0.9,11.1-1.8v-0.6l-0.6-0.9v-0.3l0.9-0.3h0.3l-0.3,0.9
		v0.2l3.3-0.6v0.6c2.3,0,5.5-1.6,9.6-4.8V158.1z M448.5,165v-0.2l1.8-0.3l0.3,0.9L448.5,165z M450.3,164.1v-1.5
		c1,0.1,1.5,0.4,1.5,0.9L450.3,164.1z M455.2,159.3h-0.6c-0.3,0-0.6-0.4-0.9-1.2h0.6l0.9,0.9V159.3z M458.2,150.9l-0.6,0.6l-0.3-0.9
		l0.6-0.6h0.3V150.9z M458.5,153.8v-0.6h0.9l0.6,0.6H458.5z M460,158.7v-1.5h0.6c0,0.6,0.5,0.9,1.5,0.9v0.3L460,158.7z M463.9,161.7
		h-1.8l0.9-1.2h0.3l0.6,0.6V161.7z M463.6,158.1h-1.2v-0.3c0.6,0,0.9-0.3,0.9-0.9h0.6L463.6,158.1z"/>
	<path d="M446.7,158.7l0.6,0.6h1.8v-2.4l-1.5-0.3c-0.6,0-0.9,0.2-0.9,0.6V158.7z"/>
	<polygon points="447.7,155.1 447.3,154.2 446.7,154.2 446.7,156 447.3,156 	"/>
	<polygon points="469.9,153.5 468.8,153.5 468.8,154.8 469.1,155.1 469.9,154.8 	"/>
	<path d="M441.9,149.6h-1.8v0.6h-0.6v-0.9c-1.8-0.2-4.6-1.5-8.5-3.7l-0.3,0.3h-0.2v-0.6h0.2l0.3,0.2v-0.2c-1.1-1.2-2.1-2.8-3-4.9
		c0-2-0.4-3-1.2-3v-0.3l0.6-0.9V136l-0.3-0.2L425,136h-5.4c-0.5,0-0.8,0.4-0.9,1.2h-0.3v-0.9h-4.2l-1.8,0.6l-1.8-0.3h-0.9l-0.3,0.3
		l-0.2-0.3h-0.3l-0.6,0.6c0,1.7,0.2,3,0.6,3.9h0.3l0.2-0.3v0.3l-0.6,0.6l0.6,3.7c1.7,5.9,4.9,10.5,9.4,13.8h1.2
		c0.7-0.8,1.7-1.3,2.7-1.5v0.9c-0.7,0-1.2,0.7-1.6,2.1c3.8,2.3,7.7,3.7,11.8,4.2l1.2-0.2h0.2c0-1.2-0.3-1.8-0.9-1.8v-0.3l0.3-0.3
		c0.4,0,1.1,0.8,2.1,2.4h2.4v-1.6h-0.9v-0.2h1.8v0.6c1.4,1.2,2.1,2,2.1,2.4h1.5l0.6-0.6l-0.9-1.2c0.8,0,1.2-0.2,1.2-0.6v-1.8
		c-0.3-0.8-0.9-1.2-1.8-1.2v-1.2l0.2-0.2h0.3l0.3,0.2l0.3-1.5v-0.6c0-0.4-0.3-0.6-0.9-0.6l0.9-1.5c0-0.9-0.4-1.4-1.2-1.6v-0.2h0.6
		l0.3,0.2c0.6,0,0.9-0.2,0.9-0.6v-2.4C443.7,150,443.1,149.7,441.9,149.6z M410.5,140c-0.6,0-0.9,0.2-0.9,0.6h-0.3v-2.1h0.6l0.6,1.2
		V140z M413.2,143.6h-0.9l0.6-0.6h0.2V143.6z M414.2,148.1h-0.6v-0.3l0.6-0.6V148.1z M414.5,140.6H413l0.6-0.6h0.9V140.6z
		 M416.3,139.7h-0.9v-0.6l0.3-0.3l0.6,0.6V139.7z M417.8,142.4h-0.6v-1.2h0.6V142.4z M419.6,150.2H419l-0.2-1.8h0.6l0.3,1.5V150.2z
		 M420.8,137h0.6v0.6l-0.6,0.6l-0.6-0.6L420.8,137z M419.9,141.2l1.2-0.6l0.3,1.2h-0.9L419.9,141.2z M420.8,155.6v-0.3l0.9-0.2v0.2
		l0.3,0.3H420.8z M427.1,148.4h0.6l-1.5,1.5v-0.6C426.8,149.4,427.1,149,427.1,148.4z M424.4,147.8h-0.6l-0.6-1.2V146h0.6l0.6,1.2
		V147.8z M424.1,140v-0.6l0.6-0.6h0.9v0.9l-0.3,0.2h0.3l0.6,0.6v0.6h-0.9C425.3,140.4,424.9,140,424.1,140z M428,162.3v0.6h-0.6
		c0-1.2-0.7-1.9-2.1-1.9v-0.2h0.3l2.4,0.9l0.3,0.3L428,162.3z M428.4,158.1l-0.6-0.6h0.3l0.6,0.6H428.4z M429.5,155.6h-0.3l-0.9-0.9
		H428l-0.3,0.3h-0.3l0.6-0.6h1.2l0.3,0.9V155.6z M430.5,160.2h-0.3l-0.3,0.3v-0.9l0.3-0.3l1.5,1.2L430.5,160.2z M431.7,152.7
		l-1.2-0.6v-0.3l0.2-0.3c-0.8,0-1.2-0.2-1.2-0.6h1.2l0.9,1.5V152.7z M435.3,157.5h-0.6l-1.2-0.9v-0.9h0.3c0,0.6,0.3,0.9,0.9,0.9
		l0.3-0.3h0.3V157.5z M436.4,162.3h-0.6v-1.2l0.6,0.6V162.3z M438.6,156l-0.9,0.3h-0.3l-0.6-0.6v-0.3h0.3l1.5,0.3V156z M440.7,152.3
		h0.3l0.6,0.6v0.3h-0.9V152.3z M441.9,162.6h-0.3V162H441l-0.3,0.3l-0.6-0.6v-1.2l1.8,1.5V162.6z"/>
	<path d="M371.3,76.5l-0.6,0.6v51.1l0.9,1.6l-0.3,0.9v0.3l0.3,0.4h-0.9v2.5l0.6,0.7h0.9l0.4-0.4c0,2.3,0.4,3.5,1.2,3.5l-0.3,1.3
		l0.6,0.6h2.2v0.6c0.8,0,1.2,0.2,1.2,0.6h-2.6l-1.6,0.4v-0.4l-1.9-0.6h-0.3l-0.6,0.6v12.1h0.6v-1.6h0.6l0.7,1.9l1.6,0.6l0.3,0.3
		h-0.9l-0.9-0.6h-1.3l-0.6,0.6v2.2l0.3,0.3c0.6,0,0.9,0.3,0.9,1l-1.2,1.9v2.9h0.6v1.6l-0.6,1v0.3l0.6,0.6h1.3v-0.6H372V165h1.9v0.9
		h3.8v-1.6h0.3l1.9,1.6h1.6c0.4,0,0.6-0.3,0.6-0.9h1.9c0,0.6,0.2,0.9,0.6,0.9h2.2l0.6-0.6l0.9,0.6h1.9l0.6-0.6v-2.6h-0.9
		c0,0.8-0.6,1.2-1.9,1.2h-0.3l0.3-0.9l-1.6-1.9v-0.4l1.9,1.6h0.7l0.9-0.9v-0.3l-0.3-1.6c-1.3-0.3-1.9-0.6-1.9-0.9v-0.3l1.9,0.9
		c0.4,0,0.6,0.5,0.6,1.6h0.6V152l-0.9,0.3l-0.6-0.6c0.6,0,1.1-0.4,1.6-1.3v-13.9h-0.6v1.2h-1.6l2.2-2.5v-3.8
		c-0.6-1.1-1.4-1.6-2.2-1.6c0-0.4,0.3-0.6,1-0.6v-1.6l-0.6-0.6h-1.9v1.9c0,0.4,0.3,0.6,0.9,0.6l-0.6,0.9c-0.7-1-1.6-1.6-2.6-1.6
		v-0.6h-1.9l-0.3-0.3l0.6-1l0.9,0.6h1.6c0.4,0,0.6-0.6,0.6-1.9c0.8,0,1.2-0.4,1.2-1.3l1.6,1h1.6V85.7l-0.3-0.3l-2.9,1.6h-0.3
		l1.6-1.2l-1.9-2.9h0.3l0.3-0.3h0.3v0.6c1.1,0.7,1.6,1.4,1.6,1.9h0.6l0.6-0.7v-7.3l-0.6-0.6H371.3z M389.1,146.6h0.9l-0.3,1.3h-1
		L389.1,146.6z M388.5,132l1.9-0.3v0.9h-1.9V132z M390.1,120.8l0.3,1.6l-1.2,0.3v-0.3l0.6-1.6H390.1z M388.5,113.2h0.3l0.7,1.9
		l-0.3,0.9h-0.7V113.2z M380.5,80.3h0.3l0.6,0.6v0.3h-0.6l-0.3-0.3V80.3z M378.9,126.3h0.7l0.3,0.9v0.3h-1V126.3z M377.1,77.4
		l0.6,0.6l-0.9,0.4h-0.3L377.1,77.4z M377.7,124.3v1.3l-0.6-0.6v-0.7H377.7z M372.3,88.2h0.4l0.6,0.6v0.3l-0.3,0.3l-0.7-0.6V88.2z
		 M373.9,122.8v1.6h-0.6v-1.6H373.9z M371.3,125.6c1.7,0.3,2.6,0.7,2.6,1.2H373L371.3,125.6z M374.2,132.6c-0.6-0.8-1.3-1.2-1.9-1.2
		V131c0.6,0,1.2-0.3,1.9-0.9h0.3l0.9,1.6l-0.9,0.9H374.2z M376.1,136.4h-0.3l-0.7-0.6v-0.3l0.7-1.6h0.9l1.6-0.3v-0.6l-0.9-0.9
		l0.3-1.9h0.6c0,0.4,0.3,0.6,1,0.6v0.3h-0.7v0.4l0.3,1.6c1.3,0.4,1.9,0.8,1.9,1.2v0.4l-1.2-0.4h-0.3l-0.4,0.4c0,0.8-0.2,1.2-0.6,1.2
		v1.9H378l-0.3-1.6L376.1,136.4z M380.9,139.3h-0.3l-0.3,0.3h-0.9l1.2-1.2L380.9,139.3z M373.3,145.6H373c0-0.6-0.3-0.9-1-0.9v-1
		l0.3-0.3l1,0.3c0.4,0,0.6-0.4,0.6-1.2c0.9,0.3,1.5,0.8,1.9,1.6h-1C373.8,144,373.3,144.5,373.3,145.6z M376.7,151l-0.6,0.7h-1
		l0.7-0.7H376.7z M375.8,164l-0.7-0.9l1.3-0.6l0.3,1.2L375.8,164z M376.4,158.6h-0.3V158h0.9L376.4,158.6z M376.4,145.9l0.6-0.6h0.6
		l-0.6,0.6H376.4z M377.4,151c0-0.4,0.3-0.6,0.9-0.6v-0.6h0.3v0.3l-0.3,0.9H377.4z M379.6,161.8h-1l-0.6-0.6h1.6V161.8z
		 M380.2,157.3c-0.6,0-0.9,0.2-0.9,0.7h-0.7v-0.3l1.6-1V157.3z M380.2,144h-0.6c0-0.8-0.4-1.2-1.3-1.2v-0.3c0-0.4,1.2-0.7,3.5-0.9
		C380.8,142.2,380.2,143.1,380.2,144z M383.1,159.9h-1.6v-0.3c0.9,0,1.3-0.3,1.3-0.9V158l-0.7-1v-0.3c0.5,0.1,0.9,0.6,1.3,1.6
		L383.1,159.9z M384.3,142.8v-0.3l0.9-0.3v0.3l0.4,0.3H384.3z M386,163.7h-1v-0.6h1V163.7z M387.8,144.7v1.2c-1.6,0-2.5,0.4-2.6,1.2
		H385v-0.3C385,146,385.9,145.3,387.8,144.7z M386.3,139v-0.6l1.2-0.3C387.5,138.3,387.1,138.6,386.3,139z M384,135.8l0.9,0.3
		l1.9-1.6h0.3v0.6c-1.5,0.4-2.2,1-2.2,1.9H384V135.8z M384.7,140.8v0.7c-1.5-0.7-2.2-1.3-2.2-1.6v-0.3h0.9l0.3,0.3
		C383.7,140.5,384,140.8,384.7,140.8z M383.4,132v1.2l-3.2-2.2v-0.3h0.6c0.3-1,0.6-1.6,0.9-1.6C381.8,130.3,382.3,131.2,383.4,132z
		 M380.5,85.7v-0.3l2.2-1h2.5l-0.6,1V86l0.3,1.6h-0.3l-0.3-0.3L380.5,85.7z M383.4,125l-0.6-0.7c1.3,0,2.4-0.5,3.5-1.6l0.3,0.3
		C386.3,123.8,385.3,124.4,383.4,125z M386.6,88.2H386l-0.7-0.7h1.3V88.2z"/>
	<polygon points="436.8,165.6 437.7,165.9 438,165.9 438,165.3 436.8,165.3 	"/>
	<polygon points="434.3,165.3 435.3,165.6 435.3,165.3 435.6,165 435.6,164.7 434.3,165 	"/>
	<path d="M442.5,127.3v0.6h-2.7c0,0.5,1.9,1.1,5.7,1.8v-1.6l-0.9-0.9H442.5z"/>
	<path d="M441.9,125.8c1.2,0,1.9-0.6,2.4-1.8l3.1,3.6l0.3-0.3l1.8,0.6v-0.3c1.6,0.1,2.9,0.6,3.9,1.5c-0.7,0.8-1.3,1.2-1.8,1.2v0.3
		c0,0.3,0.7,0.7,2.1,1.2l1.2-0.3l0.9,0.6h4.5l0.9-0.6h0.9c0.5,0.8,1.3,1.2,2.4,1.2v0.6l-0.6,0.6h-1.2l-0.3-0.2v0.2
		c-0.8,0-1.2,0.3-1.2,0.9l-2.1-0.3h-0.3v0.3l2.1,2.7h0.3l0.9-0.6h0.9l0.6,0.6v0.2c-0.4,0-0.8,0.5-1.2,1.6l-1.5-0.3
		c0,2.2-0.4,4-1.2,5.4c0.3,1,0.9,1.5,1.8,1.5v0.3l-0.2,0.3c-1.6,0-2.4,0.4-2.4,1.2l0.6,0.6l-0.3,0.3c0.1,0.6,0.9,0.9,2.4,0.9
		l0.6-0.6v-0.3l-0.3-0.3h1.8l1.8,1.2v0.3c-1.2,0-1.8,0.7-1.8,2.1h0.3l0.3,0.3h0.6l0.3-0.3l0.2,0.3l1.2-1.2v-0.6l-0.6-0.9l0.9,0.3
		h0.3v-2.1l-0.6-0.9c1.6,0.1,2.4,0.4,2.4,0.9v0.3c-0.8,0.1-1.2,0.4-1.2,0.9v2.7l1.5-0.3l0.6,0.6v0.3h-0.6l3.4,2.7l-0.6,2.1h0.3
		l0.3,0.2c1.2-0.7,1.8-1.7,1.8-3h0.3l0.3,0.3c1.1-1.2,1.9-2.4,2.4-3.6l-1.2-0.3v-0.6l0.9,0.3c1,0,1.6-1.2,1.8-3.6h-0.6v-0.3h0.6
		l0.3,0.3c0.6-2.2,1-5.2,1.2-8.8h-0.6v1.8l-1.2,0.6h-0.6V140h-1.5l-2.4,0.9l0.3,0.3v0.6h-0.3l-0.3-1.5V140h2.4c0-1,0.4-1.5,1.2-1.5
		c0.4,0,0.6-0.5,0.6-1.5c1.2,0,1.8-0.2,1.8-0.6l0.3-0.3v-2.1l-0.3-0.2c-1.2,0-1.8,0.7-1.8,2.1l-0.3-0.3l-0.3,0.3
		c-0.3,0-0.6-0.5-0.9-1.6l-0.9,0.9c-0.8,0-1.2,0.2-1.2,0.6c-0.5-0.4-1.2-0.6-2.1-0.6v-0.6h2.1c1-0.4,1.5-0.8,1.5-1.2h3l0.9-0.6
		c0-1.5-0.5-2.4-1.5-2.7c-0.8-1-1.2-1.8-1.2-2.4c-0.6,0-0.9-0.3-0.9-0.9h-2.7l0.9-2.1l-0.9,0.3h-0.3v-0.6h0.6l-0.3-1.8l-2.1-1.8h1.2
		c0,0.8,0.4,1.2,1.2,1.2v0.6h0.9v-0.2l-5.5-4.5c-4.4-2.4-11.9-4.7-22.3-7l-1.2,0.9V111l0.2-0.3l-0.2-0.2
		c-10.3-1.7-15.4-4.7-15.4-8.8v-1.8l0.2-1.5c0-1.3,1.5-3,4.5-5.2l-0.3-1.5h2.1v-0.6h3.3v0.6h-0.6l-1.2-0.3c-1.2,0.3-1.9,0.8-2.1,1.6
		c4.9-0.4,7.3-0.8,7.3-1.2V77l-0.3-0.3L438,77c-18.1,2.5-27.1,10.7-27.1,24.7v1.2c0,13.6,9.2,22,27.7,25.1h1.2v-0.6
		C441.2,127,441.9,126.5,441.9,125.8z M474.8,137h0.9l-0.6,0.6h-0.3V137z M463.6,140.6l0.6,0.6h-0.3l-0.6-0.6H463.6z M464.2,144.8
		h-0.6c-0.4,0-0.6-0.4-0.6-1.2c-1.4,0-2.1-0.3-2.1-0.9v-0.3h0.6l3.4,1.8L464.2,144.8z M464.5,137v-0.6l0.3,0.3
		c2-0.2,3.2-0.5,3.6-0.9h1.5v-0.6h1.8l-0.6,0.6v0.2l0.2,0.3v1.2l-0.9-0.6h-2.1l-0.6,0.6v0.2l0.6,0.9h-0.6c-0.4,0-0.6-0.6-0.6-1.8
		H464.5z M465.4,131.2v-0.9c1,0,1.6-0.5,1.6-1.5l1.5,0.3l-2.7,2.1H465.4z M471.2,127.3h0.2l0.6,0.6h-0.3L471.2,127.3z M471.4,146.6
		v0.6l-0.9-0.3v-0.3H471.4z M467,146.6h-0.3l-1.2-0.6v-0.6l1.6,0.6V146.6z M469.1,145.4c-1.2-0.7-1.8-1.2-1.8-1.6v-0.3h0.2
		c0,0.4,0.5,0.6,1.6,0.6V145.4z M468.1,141.8v-0.6h0.9c0-0.8,0.2-1.2,0.6-1.2v1.8H468.1z M470.3,142.4v1.2h-0.6v-1.2H470.3z
		 M473.2,153.8h-0.9v-0.6h0.9V153.8z M473.2,148.7c0,1-0.5,1.5-1.5,1.5l-1.5,1.2v-0.2h-0.6v-0.3l1.8-0.6c0-2,0.2-3,0.6-3h0.3v0.6
		c0.8,0,1.2,0.3,1.2,0.9H473.2z M472.4,143.6V143h0.9v1.2H473L472.4,143.6z M474.2,145.1l-0.6,0.6h-0.3v-1.2L474.2,145.1z
		 M473.6,138.2l-0.9,1.2l-0.6-1.2H473.6z M474.8,130.3v0.3h-0.9l-1.2-0.3v-0.6C473.1,130.1,473.8,130.3,474.8,130.3z M470.9,124.9
		h1.8v0.3l-1.8,0.3V124.9z M469.3,132.1v-0.6h0.9l0.6,0.6H469.3z M470.6,127l-1.2-0.3v-0.6l1.2,0.2V127z M469.6,122.8v0.9h-0.9
		l0.3-0.9H469.6z M460.3,125.5h2.1v-1.2l0.9,0.6h1.5l0.6-1.2v-1.2l-0.6-0.9v-0.3l0.6-0.6h0.9l0.3,0.3l1.2-0.6l-0.6-1.5
		c1,0.5,1.6,1.1,1.8,1.8c-0.4,0-0.6,0.4-0.6,1.2l-1.5-0.3h-0.3l-0.3,1.5v0.3h2.1v2.1l-0.9-0.3h-0.2l-0.6,0.6v2.1l-0.6,0.6l-1.2-1.2
		v-0.9h0.9v-1.5c-1,0-1.6,0.4-1.8,1.2l-0.9-0.6h-0.3l-0.9,0.9l-1.5-0.6V125.5z M459.1,128.5h0.6l0.3,0.3l-0.6,0.6h-0.6L459.1,128.5z
		 M453.4,121.3l0.6-0.6h0.3v1.2h-0.9V121.3z M451.3,124.3V124l0.3-0.3l0.6,0.6H451.3z M451.3,118h0.6v0.6h-1.2L451.3,118z
		 M426.2,82.7v0.6l-0.6,0.6h-0.3l-0.6-0.6L426.2,82.7z M416.8,88.7h-0.2l-0.6-0.6h0.9V88.7z M418.1,114.1l-0.9-0.9l0.9-0.3l0.3,0.3
		L418.1,114.1z M420.5,118.9h-0.6l-0.6-0.6h1.2V118.9z M422,115.2l-0.6-0.6v-1.2h0.6V115.2z M423.8,88.7h1.2l0.9,1.2h-0.6
		c0-0.4-0.5-0.6-1.5-0.6V88.7z M425.9,117h-1.5v-0.3l0.2-0.3l1.2,0.3V117z M425,107.4v-0.3l1.6-0.3l2.1,1.2L425,107.4z M432,109.8
		H431v-0.6h0.9V109.8z M442.5,115.9h1.6c0.4-1.2,0.8-1.8,1.2-1.8l-0.3-1.5v-0.3h0.6v1.2c0,1.5-1,3.1-3.1,4.5l0.3-0.9L442.5,115.9z
		 M441.6,119.5h0.3v1.5h-0.3V119.5z M434.1,117h-1.2v-0.3l0.3-0.3l0.9,0.3V117z M438.9,124.3l-1.2-1.8l2.4,0.6l1.8-1.8l0.2,0.9
		l-0.9,0.6v0.6c-0.8,0.1-1.2,0.4-1.2,0.9H438.9z"/>
	<polygon points="444,125.5 444,126.7 445.5,127.3 445.8,127.3 445.8,126.4 444.9,125.5 	"/>
	<path d="M104.7,89.1l-1.6-1.9h-0.4l-0.6,2.2V91h0.6C103.9,90.5,104.5,89.8,104.7,89.1z"/>
	<polygon points="125.9,135.3 124.9,135.3 123.7,136.3 124.6,138.5 125.3,138.5 125.9,136.6 	"/>
	<polygon points="125.9,142.3 126.2,142.6 126.9,142 126.9,141.7 125.9,141.7 	"/>
	<path d="M96.2,76.5l-0.3,0.3l-0.3-0.3H87v1.2c1.7,0.6,2.6,1,2.6,1.3l-0.9-0.3c-1.7,0-2.6-0.7-2.6-2.2h-3.5l-0.3,0.3l-0.3-0.3h-2.6
		l-0.6,0.6v31.4l0.6,0.9v0.9l-0.6,0.9v4.8l0.6,0.6c0.4,0,0.6-0.3,0.6-0.9h0.3l0.4,0.3l-0.4,1.6v0.9H80l-0.9-0.6h-0.3v2.9
		c0,0.4,0.6,0.7,1.9,0.9v0.3l-0.4,0.3c-1,0-1.6,0.2-1.6,0.7v10.4l2.6-0.6v0.3l1.2-0.9h0.3v0.9h0.6v-0.9l1,0.3l0.3,0.3v0.3l0.9-0.3
		l1.2,0.6c0,0.9-0.5,1.3-1.6,1.3c0,1.5,0.3,2.2,0.9,2.2l-0.6,0.6h-0.3c0-0.7-0.4-1.7-1.3-2.8h-0.3l0.3-1v-0.3h-0.6v1
		c-1,0-1.6,0.2-1.6,0.6l-2.2-0.6l-0.9,0.9v1.6l0.6,0.6l0.9-0.6h0.4v0.6l-1.9,1.9v12c0,0.4,0.6,0.6,1.9,0.6v1.6l0.6,0.9
		c1.2,0,1.9,0.5,1.9,1.6v0.4l-0.3,1.6h-0.6l-0.3-0.3c-1.7-0.5-2.6-1.5-2.6-3.2l-0.6,0.6v5.7c0.5,1,1.3,1.6,2.6,1.9l0.3-0.3
		c0-0.5-0.4-1.2-1.3-1.9v-1c0.7,0,1.4-0.3,1.9-0.9h0.3v2.2l0.3,0.3h-0.3c0,0.4,0.3,0.6,0.9,0.6v0.6h0.6v-0.3c0-0.8,0.3-1.2,1-1.2
		v-1.9c-0.5,0-1-0.4-1.6-1.2l3.5,1.6v0.6h-0.6l0.3,1v0.3h0.6l3.2-2.2v-0.3l-0.3-0.3c0.6-0.6,1-1.6,1.2-3.2l-1.9-0.9l-0.9,0.9v0.6
		h0.9v0.7c-0.8,0-1.2,0.3-1.2,0.9h-0.4l-0.9-0.6l0.3-1.6l-0.9-0.3l-0.3,0.3c-1.5,0-2.4-1.1-2.6-3.2l1,0.7h1.9v-2.6l-0.3-0.3
		c-1.9,0-2.9,0.5-2.9,1.6l-0.9-0.3h-0.3l-0.3,0.3l-0.3-0.3l0.3-0.3v-0.3l-0.3-0.3v-0.6l0.6-0.7h0.6l1.6,0.4l0.4-1V148l-0.4-0.3h1
		l0.6,0.6v0.3h-0.9v0.3c2.3,0.5,3.5,1.5,3.5,2.9c0.6,0.1,1.3,0.8,2.2,2.2c0.6-0.2,1-0.6,1.2-1.2l-0.3-1.3l1-0.3l0.6,0.6v0.6h0.9
		c0-1,0.5-1.6,1.6-1.6l-0.4-2.2l1.6-0.6l-0.3-0.3v-0.6h0.3c0,0.8,0.5,1.6,1.6,2.2l0.6-0.7V85.3H98c0-0.4,0.3-0.6,0.9-0.6v-2.5
		c-0.8,0-1.2,0.3-1.2,0.9h-2.6v-0.6c1,0,2.1-0.4,3.2-1.3l0.3,0.3H99v-2.2c0-0.4-0.3-0.6-0.9-0.6l0.9-1.3v-0.3l-0.6-0.6H96.2z
		 M82.8,141.7l-0.9-0.7c0,0.6-0.4,1.2-1.2,1.6l-0.4-0.9c0-0.7,0.3-1,1-1v-1.9c1,0.4,1.6,1,1.6,1.9h0.3l0.3-0.3v0.6h0.6l0.4-0.3v1
		H82.8z M86.6,145.1l-2.6-0.6l0.7-0.6h0.6l1.2,0.6V145.1z M89.8,99.9l0.3-0.3v0.6l-0.3,0.3h0.3v0.4l-0.3,0.3v0.6h1.9
		c-0.1,0.4-0.6,0.8-1.6,1.2l-0.3-0.9c-0.6,0-0.9-0.3-0.9-0.9h-0.3l-0.3,0.3v-1l0.3-0.3l-0.3-0.3v-0.3h1.2L89.8,99.9z M91.4,90.7
		v-0.3h0.3l1.6-1.6c0,0.9,0.3,1.6,0.9,2.2V92l-1.6,0.3h-1l0.4-1.6H91.4z M93,94.5h0.3L93,95.4v0.3l0.3,0.3v0.3l-0.9-0.6
		c0,1.1-0.3,1.6-1,1.6v-1.6C91.5,95.3,92,94.9,93,94.5z M92.7,107.8v1c-0.5,0.9-1,1.4-1.6,1.6l-1.2-0.9
		C89.8,109,90.8,108.5,92.7,107.8z M89.5,107.5v0.3c-1.5-0.3-2.2-0.7-2.2-1.2v-0.6L89.5,107.5z M88.9,81.2h0.6v1h-0.6V81.2z
		 M87.9,89.4h1.3v0.7h-0.3l-0.3-0.3h-0.3l-0.4,0.3V89.4z M87.3,93.9h1v0.3l-0.4,0.3c0.7,0,1,0.3,1,0.9h-0.3l-0.3,0.3h-0.4
		c0-0.8-0.2-1.2-0.6-1.2V93.9z M87.9,99.6v0.6l-2.2,0.3v-0.3l0.6-0.6H87.9z M86.3,80.6v0.6l-0.6,0.6l-0.6-0.6L86.3,80.6z M85.1,88.8
		v0.6l-0.6,0.7h-1l-0.3-0.3l0.6-1.6L85.1,88.8z M81.3,86.9c0.8,0,1.2-0.2,1.2-0.6h0.9v0.6l-1.9,0.9h-0.3V86.9z M79.7,94.5l2.9-0.3
		v0.3l-0.3,2.2L79.7,94.5z M81.9,127.4l-0.6-0.6v-0.4l0.6,0.7V127.4z M83.5,121.7h-0.9l-0.3-0.3v0.3l-1.2-0.3v-0.9l0.3-0.3
		c0.7,0.6,1.6,0.9,2.8,0.9L83.5,121.7z M85.7,130.2h-0.6v-0.9h0.6V130.2z M85.7,125.2h-0.3l-0.3-0.3l0.6-0.6V125.2z M86,121.1h-0.9
		l-0.3-0.3l0.6-0.6l0.6,0.6V121.1z M85.7,116.7c0-0.9-0.5-1.4-1.6-1.6c-0.6,0-0.9,0.3-0.9,1h-0.3l-0.6-0.7v-0.3l0.6-0.9v-0.3
		c-0.6,0-0.9-0.2-0.9-0.6l-0.3,0.3H81v-0.3c0.8,0,1.2-0.3,1.2-0.9v-0.7l-0.3-0.3c0.8,0,1.2-0.3,1.2-0.9l-0.6-0.9v-0.3l0.3,0.3
		l1.9-0.9c0,0.6,0.2,0.9,0.6,0.9h0.3l0.3-0.3v0.3l0.3,0.3v0.9H86l-2.6,1.3v0.6l0.3,0.3l-0.3,0.3v0.6h1.9l0.3,0.3v-0.6l0.3,0.3
		c0.7,0,1.5-0.3,2.2-0.9h0.3v2.2c1.5-0.2,2.2-0.6,2.2-1.2l0.3-0.3l0.3,0.3h0.7C92.1,114.7,89.9,115.6,85.7,116.7z M89.2,125.8
		l-0.3-1.6h0.9l0.9,1.2v0.3H89.2z M89.5,126.4v1.6h-0.3l-0.3-0.9L89.5,126.4z M89.8,121.4l-2.2-1.9v-0.4l0.3-0.3l3.5,3.5h-0.6
		L89.8,121.4z M88.3,148.9v-0.6l0.6-0.6h0.6l0.3,0.9L88.3,148.9z M89.2,144.5h-0.6v-0.3c1.1-0.4,1.7-1.1,1.9-2.2
		c-0.3-0.9-0.6-1.3-0.9-1.3l0.3-0.3l-0.3-0.9l0.6-0.6h0.6l-0.3,1.6v0.3l0.6,0.6h0.3C91.4,142.4,90.7,143.4,89.2,144.5z M92.4,133.1
		l-0.3,0.3c-1.5,0.2-2.2,1.1-2.2,2.6v0.3l0.3,0.3l0.3-0.3c0.9,0,1.6,0.5,1.9,1.6c-0.9,0-1.3,0.2-1.3,0.6l-1.2-1l-1.9,0.7l0.7-2.6
		l-1.3-0.3v-0.9l1,0.6h0.6c0.7-1.7,1.2-2.6,1.6-2.6h1.9V133.1z M92.7,133.1v-0.6l0.9-0.3h0.3v0.9H92.7z M94.2,139.5v0.6h-0.3
		l-0.3-1.9h0.6l0.3,1.2H94.2z M95.2,135.3l-0.3,0.3l-1.6-0.9v-0.3l0.3-0.4l1.6,0.4V135.3z M95.9,92l-1,0.3v-0.6h1V92z M96.5,87.5
		c0-0.8,0.4-1.3,1.2-1.6v1.6l-0.3-0.3l-1.2,0.9h-1.9v-0.6H96.5z M95.2,81.2c-0.6,0-0.9,0.2-0.9,0.6h-0.9l-0.6-0.6v-0.3h1.6v-0.3
		c0-0.4-0.6-0.8-1.9-1.2v1.2c-1.6,0-2.4-0.4-2.6-1.2V79h0.6l0.3,0.3l0.3-1.3h0.3l0.3,0.4h0.7l0.6-1.6h0.3c0,0.7,0.7,1.7,2.2,2.9
		L95.2,81.2z"/>
	<polygon points="129.7,83.1 129.1,83.1 129.1,84 129.7,83.4 	"/>
	<path d="M129.1,143.9h2.2l0.3-0.3l-0.6-2.2l0.9-0.9c0-0.4-0.3-0.6-0.9-0.6v-1.2h1.2v0.6h0.3l1.6-2.9c1.9,0,2.9-0.3,2.9-0.9v-1.6
		l-1.3-0.3l1-0.9h1.2v0.3l-0.3,0.3v0.9l0.6,0.7v0.3l-0.3,0.3v0.3l1.2,0.3l0.3-0.3h0.7l0.3,0.9l-1.3,1.9v0.6c1.5,0,2.2,0.7,2.2,2.2
		c1,0,1.6,0.2,1.6,0.7c-2.9,0-4.4,1.2-4.4,3.5v0.3l1.9,0.3v-0.3l1.9-0.7v-0.3l-0.3-0.3l1.2-0.6v1.9h1.9l0.3-0.3l0.3,0.3l0.9-0.7
		l-0.6-4.4h-0.9v0.6h-0.6v-0.6c0.8,0,1.2-0.3,1.2-0.9v-0.3c0-1-0.3-1.7-0.9-1.9h-2.9l0.3-1.2l-0.3-1.2v-0.6h0.6
		c0.6,1.7,1.1,2.5,1.6,2.5l0.9-0.3c-0.6-3.6-1.3-5.4-1.9-5.4l-1.9,0.9l0.3-0.9v-0.3l-0.3-0.3l0.9-1.3V129c-0.8,0-1.2,0.3-1.2,0.9
		h-0.9V129l1.6-0.3v-0.6c-2.6-3.4-5.1-5-7.6-5v-0.4l5.4-1.9c3.9-2.3,6.7-5.8,8.3-10.5h-1l-1.6-0.3l-0.3,0.3v-0.9h0.6l0.6,0.6h0.3
		c1.9,0,2.9-2.5,2.9-7.6v-3.8l-0.6-0.6h-1.3l-0.6,0.6v0.9l0.6,0.9h-0.6c0-0.6-0.3-0.9-0.9-0.9l-0.3,0.3h-0.3v-1.6
		c1.1,0,2.4-0.7,3.8-2.2l-0.3-2.2h-0.3c-1,0-2.1,0.8-3.2,2.5c0-1-0.2-1.7-0.6-2.2v-0.3h0.6c0.8-0.5,1.2-1.1,1.2-1.9h0.6v0.6h1
		c0-1.3-1.1-3.4-3.2-6.3H144l-0.7,0.6v1.2l0.7,0.9v1h-0.4l-1.6-0.3v1.9l0.3,0.3h-0.3l0.6,0.9v0.4h-0.3l-0.9-0.7l0.3-0.3l-0.9-0.9
		h-3.2l0.3-0.3l-0.3-0.9v-0.3h0.9l0.6,0.6l1.6-0.3h0.3l0.3,0.3c0.8-0.9,1.2-1.9,1.2-3.2v-0.3c-0.7-1.3-1.7-1.9-2.9-1.9h-0.9v-1.2
		l0.3-0.3l-0.3-0.3c0.9,0,2,0.8,3.5,2.5h1.6V85c-2-2.2-3.7-3.7-5.1-4.4h-0.6c-0.4,0-0.6,0.4-0.6,1.2h-0.3l-0.3-0.3l-1.6,0.3v0.4
		l0.3,0.3c-0.6,0-0.9,0.3-0.9,0.9v0.3l-1.6-0.3v-1.6l-1.9-1.9V79l0.6-0.6c0-1.2-4.2-1.8-12.6-1.9H112c-0.5,0-0.8,0.9-0.9,2.6
		l0.3,1.2c0.8,0,1.2,0.2,1.2,0.6v0.3H112c-0.5-0.4-1.2-0.6-2.2-0.6v-0.9c0.7-0.8,1-1.7,1-2.9v-0.3l-5.4,0.3v0.6h-0.6l0.3-0.3
		l-0.6-0.6h-1.6l-0.6,0.6V79l0.6,0.9l-0.6,0.9v4.7c1.4,1.1,2.8,1.6,4.4,1.6v0.3c-0.6,0-0.9,0.2-0.9,0.6v1.6l-0.6,0.6h-0.6V91
		l0.3,0.3l-1.6,0.9h-0.4l-0.3-0.3v0.3l-0.3,0.3l0.6,0.7h2.9l1.3-0.4l1.2,0.4h3.2l1.6,0.3l0.3-0.3h0.3l0.3,0.3h0.4l0.3-0.3v0.3
		l0.9-0.3l8.8,1.2l1-0.3v0.6c2.3,2.1,3.7,4.1,4.1,6c2.1,0,3.1,0.5,3.1,1.6h0.4l0.3-0.3v0.9l-0.3,0.3l-1-0.3c0-0.6-0.2-0.9-0.6-0.9
		h-1.6v4.1l0.3,0.3l-0.6,0.9l-0.3,0.3c0,2.5-1.9,4.9-5.7,7.3c-3.4,0.7-5.5,1.3-6.4,1.9h-0.3v-0.6l-6.3,0.3h-7.7l-0.6,0.6v14.9
		l0.6,0.6h6.7c0.4,0,0.6-0.3,0.6-0.9h0.7l0.3,0.9l6.3,0.3v-0.3l-0.6-0.9l0.9-0.3c0.7,1.2,2.2,2.4,4.5,3.5h1.2c0-0.7,0.7-1.3,2.2-1.9
		h0.9l0.3,0.3c1,0,1.8,0.6,2.6,1.9l0.3,0.3l0.3-0.3c0.8,0,1.2-0.4,1.2-1.3c0.8-0.3,1.2-0.6,1.2-0.9v-1.2l-0.6-0.9v-0.3l0.6-0.7h0.7
		l0.3,0.3l0.3-0.3h0.6v0.7l-0.6,0.6h-0.6v1.6l0.3,0.3c0.6,0,0.9,0.2,0.9,0.6l-0.9,1l0.6,0.9v0.3l-0.9-0.6h-0.3
		c-1.9,0-2.9,0.7-2.9,2.2v0.4l0.3,0.3v0.3h-0.6v1.2l0.3,0.3c-0.9,0-1.3,0.2-1.3,0.6l-1.6-0.3v0.6l0.3,0.3h-0.3
		c0,0.5,0.3,0.7,0.9,0.7C128.1,143.3,128.4,143.9,129.1,143.9z M141.4,132.8l0.3,0.9h-0.6l-0.3-0.3L141.4,132.8z M137,126.4h0.9
		l0.3,0.4l-0.6,0.6l-0.6-0.6V126.4z M147.4,102.4h0.4l-0.7,0.6h-0.3L147.4,102.4z M144.9,106.5l0.9,0.9v0.7l-0.9-1V106.5z
		 M105.9,86.9h-0.3l-0.9-1.9l0.3-0.3l0.9,0.9V86.9z M110.1,86.3h-0.3l-0.6-0.7V85h0.6l0.3,1V86.3z M112.3,92.6v-1.2h0.3l0.3,1.2
		H112.3z M113.2,87.5l1,1.6l-1.6,0.3c-0.8,0-1.2-0.4-1.2-1.2h-0.6v-0.3l1.9-0.6l-0.3-0.3l0.6-1.3h1.6L113.2,87.5z M114.5,82.5h-0.3
		l-0.4-0.3h-0.3l-0.3,0.3v-0.7h1.3V82.5z M114.8,78.7l-0.6,0.6V79l0.6-0.6V78.7z M125.9,86.9h-1v-0.6l1,0.3V86.9z M114.2,121.7v0.9
		l-1-0.9H114.2z M114.5,125.2v0.3h-1v-1.2h0.7L114.5,125.2z M113.5,128.4l0.7,0.6v0.3l-0.7-0.6V128.4z M114.5,131.2l-0.3-0.3
		l0.3-0.3v-0.4l-0.3-0.3h0.6l0.6,1.3H114.5z M117.3,118.2h-0.6v-0.9h0.6V118.2z M124.9,117v1.9h-0.3l-0.3-0.9
		C124.3,117.3,124.5,117,124.9,117z M122.8,122l2.2-0.6v0.3l-1.2,0.9l-0.9-0.3V122z M120.2,119.2c0-0.6,0.2-0.9,0.6-0.9h0.3
		l-0.6,1.3h-0.3V119.2z M120.2,122l0.9-0.9h0.3v0.6l-1.2,0.6V122z M119.9,130.6l-1.2-0.4v-0.9c0.6,0,0.9-0.2,0.9-0.6h0.3V130.6z
		 M121.1,131.9v-0.6h0.7l0.6,0.6H121.1z M124.3,126.1l-4.1,2.6l-0.3-0.3l0.6-0.6l-0.3-0.9v-0.4h0.3l0.3,0.4h0.3l1.9-1.6l1.2,0.3
		V126.1z M127.5,129.9l-0.6,0.7l-1.9-1h-0.3l0.3-1.6h0.7c0,0.8,0.2,1.2,0.6,1.2l0.6-0.6l0.6,0.6V129.9z M128.4,118.5v-0.9l1.6,0.3
		c0,1.1,0.2,1.6,0.6,1.6v0.6H130C130,119.2,129.5,118.7,128.4,118.5z M130.7,129v-1.9H130v-1c0.3,0,0.7,0.6,1.2,1.9
		C131.3,128.7,131.1,129,130.7,129z M131.3,125.5c-0.9-0.3-1.5-0.8-1.9-1.6v-0.3h0.6l1.2,1.6V125.5z M131.9,110.6l-0.9-0.3V110h0.9
		V110.6z M133.5,92.6l0.6-0.9l0.9,0.3v0.6l-0.3-0.3h-0.3l-0.3,0.3H133.5z M136.7,115.1v0.3l-1.3,0.4l-0.9-0.4v-0.6L136.7,115.1z
		 M136.3,102.1v-0.6c0.9,0.2,1.3,0.8,1.3,1.9h-0.3C137,103.3,136.7,102.9,136.3,102.1z M139.2,118.2l-1.2,0.3v1.3
		c0.6,0,0.9,0.2,0.9,0.6h-0.3l-1.6-1.3h-0.3c-0.3,0-0.7,0.4-1,1.3c-0.8-0.3-1.2-0.6-1.2-0.9v-0.4h1.9l0.7-0.6v-0.6h2.2V118.2z
		 M138.6,99.6h0.6c0,0.4,0.3,0.6,1,0.6v1C139.6,101,139.1,100.5,138.6,99.6z M139.8,113.2l-0.6-0.6v-0.3h0.6V113.2z M142.1,116.4
		h-0.3l-0.3-1.3h0.6V116.4z M142.4,111.3l-0.3,0.3h-0.6v-0.3l0.6-0.6h0.3V111.3z M142.7,107.1v0.3c0,0.5-0.6,0.8-1.9,1
		c-0.4,0-0.7-0.9-1-2.6l1.9,0.9l0.3-0.3L142.7,107.1z M141.4,98.3l0.6,0.6l-0.6,0.6V98.3z M138.3,97.1h1.8l0.1,0
		c0-1,0.2-1.6,0.6-1.6l0.3,1.2l-0.9,0.3c0,0,0,0,0,0H140l-1.8,0.6V97.1z M137.9,95.1v0.6H137v-0.3L137.9,95.1z M135.7,86.3l1.9-1.3
		h0.6l0.3,0.3l-0.6,0.7l0.9,1.2c-1-0.2-1.6-0.5-1.6-0.9l-1.6,0.3V86.3z M136.7,88.5v0.3h-1.6v-0.9l0.6-0.6
		C135.7,88.1,136,88.5,136.7,88.5z M134.5,84.4l0.3-0.3h0.3V85l-0.6,0.6l-0.3-1.2H134.5z M133.2,89.8l0.9-0.4l0.3,1v0.3l-0.3,0.3
		l-0.9-0.9V89.8z M131.3,92h0.9l1,0.6v0.7h-0.3v-0.7C131.8,92.6,131.3,92.4,131.3,92z M128.1,96.4v-0.6h0.3l0.7,0.6H128.1z
		 M127.8,91.6v0.6l0.9,1v0.3l-0.3,0.3c-1.5-0.6-2.2-1.7-2.2-3.2c0.8,0,1.2-0.6,1.2-1.9v-0.9l-0.3-0.3c0.7,0,1.1-0.9,1.2-2.6h-0.3
		l0.3-2.2l-0.9-0.3v-0.3l0.3-1.6c0.6,0.1,1,0.6,1.3,1.6c1,0,1.6,0.4,1.6,1.2l0.3-0.3h0.6v0.3c-0.6,0-0.9,0.5-0.9,1.6
		c-1.5,1.1-2.2,2.2-2.2,3.2v1.2c0.9-0.1,1.3-0.4,1.3-0.9c1.2-0.5,1.9-1.1,1.9-1.6h0.9v1.2c-1,0-2,0.3-2.8,0.9l0.3,0.3l-0.3,0.4
		l0.3,0.3C129.4,91.1,128.7,91.6,127.8,91.6z M130.3,96.4v1H130l-0.3-0.3L130.3,96.4z M131,98.6l-0.9-0.9h0.3l0.6,0.6V98.6z
		 M131.6,96.4l-0.3-0.9v-0.3h0.6l0.3,1.2H131.6z M132.2,98.3l0.3-1.2h0.7v1.2H132.2z M132.5,126.1v-0.6h1.9v0.6H132.5z"/>
	<rect x="94.2" y="165.1" width="1.3" height="0.6"/>
	<polygon points="97.4,163.8 96.8,164.5 96.8,165.1 97.4,165.7 97.7,165.7 98.3,165.1 98.3,164.5 97.7,163.8 	"/>
	<polygon points="80,155.3 80,156.2 81.3,156.2 81.6,155.9 81.3,154.6 80.7,154.6 	"/>
	<path d="M83.8,163.2c-0.7,1.3-1.3,1.9-1.9,1.9l0.6,0.6h2.6v-0.9c1.4,0,2.5-0.5,3.2-1.6v-0.3l-1-0.9l-2.2,0.9l-0.3-0.3h-0.7v0.3
		L83.8,163.2z"/>
	<polygon points="97.4,155 97.7,153.1 97.4,153.1 97.1,152.8 95.9,152.8 95.2,153.4 95.2,153.7 95.9,155 	"/>
	<path d="M94.9,164.2c0-1-1.2-2.2-3.5-3.5h-0.3c0,0.8-0.2,1.2-0.6,1.2v0.6l1.6,0.3v0.6h-2.2v-0.6h-0.6l-0.6,0.6v1.9l1.6,0.3h3.5
		v-0.6l-0.3-0.3L94.9,164.2z"/>
	<path d="M93.3,158.4l0.3-0.3l0.9,3.2l-0.3,0.3l2.9,0.3v-0.3l0.9-0.9l-0.6-0.7l0.3-0.3c-0.5-1-1-1.6-1.6-1.6l-0.3,0.3h-0.7
		c0.2-1,0.7-1.6,1.3-1.6v-1l-0.3-0.3c-0.7,0-1-0.2-1-0.6h-1.2c-0.4,0-0.6,0.3-0.6,0.9h-0.6v0.7l0.3,1.6l-0.3,0.3H93.3z"/>
	<polygon points="79.7,163.8 79.1,164.5 79.1,164.8 80,165.7 81.3,165.7 81.6,164.8 80.7,163.8 	"/>
	<path d="M341.7,156c-1.3,0-2,0.5-2.1,1.5l0.3,0.3v0.3h-0.6v2.1H339l-0.2,0.3v0.3c-1-0.2-1.6-0.5-1.6-0.9c1,0,1.6-0.5,1.6-1.5v-1.2
		c0.5,0,0.8-0.5,0.9-1.6l-0.3-0.3v-0.6l0.3-0.3l-0.3-0.3c-1.6,0.2-2.4,0.7-2.4,1.5h-0.6c0-0.6-0.6-1.4-1.8-2.4V153l0.3-0.3l-0.6-0.9
		l-0.3,0.3l-0.9-0.3c0-1.4-1-2.1-3-2.1c-1.2-1-2.4-1.5-3.6-1.5l-1.2,0.9v0.3h0.9c0.2,1,0.6,1.5,1.2,1.5l-0.2,0.3l0.2,1.5v0.9h-0.6
		l-0.3-1.8L326,152l-0.9-0.6h-0.6v0.3l0.3,0.3h-2.4v0.6h-0.3l-0.9-1.8h3V149c-2,0-3,0.4-3,1.2l-1.6-0.3c-1,0.2-1.5,0.5-1.5,0.9v1.8
		l2.1,1.8l-0.3,0.9c0.8,1.5,1.2,2.7,1.2,3.7h0.2l0.3-0.3h0.3v0.6l-0.9,0.9c0,1-0.2,1.5-0.6,1.5H320l-1.5-0.3v0.3l-0.3,0.3v3.6
		l0.3,0.3c7.4-0.3,11.1-0.9,11.1-1.8v-0.6l-0.6-0.9v-0.3l0.9-0.3h0.3l-0.3,0.9v0.2l3.3-0.6v0.6c2.3,0,5.5-1.6,9.7-4.8v-0.3
		C342.4,158.1,342,157.4,341.7,156z M320,165v-0.2l1.8-0.3l0.3,0.9L320,165z M321.8,164.1v-1.5c1,0.1,1.5,0.4,1.5,0.9L321.8,164.1z
		 M326.6,159.3H326c-0.3,0-0.6-0.4-0.9-1.2h0.6l0.9,0.9V159.3z M329.6,150.9l-0.6,0.6l-0.3-0.9l0.6-0.6h0.3V150.9z M329.9,153.8
		v-0.6h0.9l0.6,0.6H329.9z M331.4,158.7v-1.5h0.6c0,0.6,0.5,0.9,1.5,0.9v0.3L331.4,158.7z M335.4,161.7h-1.8l0.9-1.2h0.3l0.6,0.6
		V161.7z M335,158.1h-1.2v-0.3c0.6,0,0.9-0.3,0.9-0.9h0.6L335,158.1z"/>
	<polygon points="319.1,155.1 318.8,154.2 318.2,154.2 318.2,156 318.8,156 	"/>
	<path d="M318.2,158.7l0.6,0.6h1.8v-2.4l-1.5-0.3c-0.6,0-0.9,0.2-0.9,0.6V158.7z"/>
	<polygon points="341.4,154.8 341.4,153.5 340.2,153.5 340.2,154.8 340.5,155.1 	"/>
	<path d="M317,129.7v-1.6l-0.9-0.9h-2.1v0.6h-2.7C311.3,128.4,313.2,129,317,129.7z"/>
	<polygon points="315.5,125.5 315.5,126.7 317,127.3 317.3,127.3 317.3,126.4 316.4,125.5 	"/>
	<path d="M313.4,149.6h-1.8v0.6H311v-0.9c-1.8-0.2-4.6-1.5-8.5-3.7l-0.3,0.3h-0.2v-0.6h0.2l0.3,0.2v-0.2c-1.1-1.2-2.1-2.8-3-4.9
		c0-2-0.4-3-1.2-3v-0.3l0.6-0.9V136l-0.3-0.2l-2.1,0.2H291c-0.5,0-0.8,0.4-0.9,1.2h-0.3v-0.9h-4.2l-1.8,0.6l-1.8-0.3h-0.9l-0.3,0.3
		l-0.2-0.3h-0.3l-0.6,0.6c0,1.7,0.2,3,0.6,3.9h0.3l0.2-0.3v0.3l-0.6,0.6l0.6,3.7c1.7,5.9,4.9,10.5,9.4,13.8h1.2
		c0.7-0.8,1.7-1.3,2.7-1.5v0.9c-0.7,0-1.2,0.7-1.6,2.1c3.8,2.3,7.7,3.7,11.8,4.2l1.2-0.2h0.2c0-1.2-0.3-1.8-0.9-1.8v-0.3l0.3-0.3
		c0.4,0,1.1,0.8,2.1,2.4h2.4v-1.6h-0.9v-0.2h1.8v0.6c1.4,1.2,2.1,2,2.1,2.4h1.5l0.6-0.6l-0.9-1.2c0.8,0,1.2-0.2,1.2-0.6v-1.8
		c-0.3-0.8-0.9-1.2-1.8-1.2v-1.2l0.2-0.2h0.3l0.3,0.2l0.3-1.5v-0.6c0-0.4-0.3-0.6-0.9-0.6l0.9-1.5c0-0.9-0.4-1.4-1.2-1.6v-0.2h0.6
		l0.3,0.2c0.6,0,0.9-0.2,0.9-0.6v-2.4C315.2,150,314.6,149.7,313.4,149.6z M282,140c-0.6,0-0.9,0.2-0.9,0.6h-0.3v-2.1h0.6l0.6,1.2
		V140z M284.7,143.6h-0.9l0.6-0.6h0.2V143.6z M285.6,148.1H285v-0.3l0.6-0.6V148.1z M285.9,140.6h-1.5l0.6-0.6h0.9V140.6z
		 M287.7,139.7h-0.9v-0.6l0.3-0.3l0.6,0.6V139.7z M289.2,142.4h-0.6v-1.2h0.6V142.4z M291,150.2h-0.6l-0.2-1.8h0.6l0.3,1.5V150.2z
		 M292.2,137h0.6v0.6l-0.6,0.6l-0.6-0.6L292.2,137z M291.3,141.2l1.2-0.6l0.3,1.2H292L291.3,141.2z M292.2,155.6v-0.3l0.9-0.2v0.2
		l0.3,0.3H292.2z M298.6,148.4h0.6l-1.5,1.5v-0.6C298.3,149.4,298.6,149,298.6,148.4z M295.9,147.8h-0.6l-0.6-1.2V146h0.6l0.6,1.2
		V147.8z M295.6,140v-0.6l0.6-0.6h0.9v0.9l-0.3,0.2h0.3l0.6,0.6v0.6h-0.9C296.8,140.4,296.4,140,295.6,140z M299.5,162.3v0.6h-0.6
		c0-1.2-0.7-1.9-2.1-1.9v-0.2h0.3l2.4,0.9l0.3,0.3L299.5,162.3z M299.8,158.1l-0.6-0.6h0.3l0.6,0.6H299.8z M301,155.6h-0.3l-0.9-0.9
		h-0.3l-0.3,0.3h-0.3l0.6-0.6h1.2l0.3,0.9V155.6z M301.9,160.2h-0.3l-0.3,0.3v-0.9l0.3-0.3l1.5,1.2L301.9,160.2z M303.1,152.7
		l-1.2-0.6v-0.3l0.2-0.3c-0.8,0-1.2-0.2-1.2-0.6h1.2l0.9,1.5V152.7z M306.7,157.5h-0.6l-1.2-0.9v-0.9h0.3c0,0.6,0.3,0.9,0.9,0.9
		l0.3-0.3h0.3V157.5z M307.9,162.3h-0.6v-1.2l0.6,0.6V162.3z M310,156l-0.9,0.3h-0.3l-0.6-0.6v-0.3h0.3l1.5,0.3V156z M312.1,152.3
		h0.3l0.6,0.6v0.3h-0.9V152.3z M313.4,162.6h-0.3V162h-0.6l-0.3,0.3l-0.6-0.6v-1.2l1.8,1.5V162.6z"/>
	<path d="M351.4,140l-1.2,0.6h-0.6V140h-1.5l-2.4,0.9l0.3,0.3v0.6h-0.3l-0.3-1.5V140h2.4c0-1,0.4-1.5,1.2-1.5c0.4,0,0.6-0.5,0.6-1.5
		c1.2,0,1.8-0.2,1.8-0.6l0.3-0.3v-2.1l-0.3-0.2c-1.2,0-1.8,0.7-1.8,2.1l-0.3-0.3l-0.3,0.3c-0.3,0-0.6-0.5-0.9-1.6l-0.9,0.9
		c-0.8,0-1.2,0.2-1.2,0.6c-0.5-0.4-1.2-0.6-2.1-0.6v-0.6h2.1c1-0.4,1.5-0.8,1.5-1.2h3l0.9-0.6c0-1.5-0.5-2.4-1.5-2.7
		c-0.8-1-1.2-1.8-1.2-2.4c-0.6,0-0.9-0.3-0.9-0.9H345l0.9-2.1l-0.9,0.3h-0.3v-0.6h0.6l-0.3-1.8l-2.1-1.8h1.2c0,0.8,0.4,1.2,1.2,1.2
		v0.6h0.9v-0.2l-5.5-4.5c-4.4-2.4-11.9-4.7-22.3-7l-1.2,0.9V111l0.2-0.3l-0.2-0.2c-10.3-1.7-15.4-4.7-15.4-8.8v-1.8l0.2-1.5
		c0-1.3,1.5-3,4.5-5.2l-0.3-1.5h2.1v-0.6h3.3v0.6h-0.6l-1.2-0.3c-1.2,0.3-1.9,0.8-2.1,1.6c4.9-0.4,7.3-0.8,7.3-1.2V77l-0.3-0.3
		l-5.4,0.3c-18.1,2.5-27.1,10.7-27.1,24.7v1.2c0,13.6,9.2,22,27.7,25.1h1.2v-0.6c1.4-0.3,2.1-0.8,2.1-1.5c1.2,0,1.9-0.6,2.4-1.8
		l3.1,3.6l0.3-0.3l1.8,0.6v-0.3c1.6,0.1,2.9,0.6,3.9,1.5c-0.7,0.8-1.3,1.2-1.8,1.2v0.3c0,0.3,0.7,0.7,2.1,1.2l1.2-0.3l0.9,0.6h4.5
		l0.9-0.6h0.9c0.5,0.8,1.3,1.2,2.4,1.2v0.6l-0.6,0.6h-1.2l-0.3-0.2v0.2c-0.8,0-1.2,0.3-1.2,0.9l-2.1-0.3h-0.3v0.3l2.1,2.7h0.3
		l0.9-0.6h0.9l0.6,0.6v0.2c-0.4,0-0.8,0.5-1.2,1.6l-1.5-0.3c0,2.2-0.4,4-1.2,5.4c0.3,1,0.9,1.5,1.8,1.5v0.3l-0.2,0.3
		c-1.6,0-2.4,0.4-2.4,1.2l0.6,0.6l-0.3,0.3c0.1,0.6,0.9,0.9,2.4,0.9l0.6-0.6v-0.3l-0.3-0.3h1.8l1.8,1.2v0.3c-1.2,0-1.8,0.7-1.8,2.1
		h0.3l0.3,0.3h0.6l0.3-0.3l0.2,0.3l1.2-1.2v-0.6l-0.6-0.9l0.9,0.3h0.3v-2.1l-0.6-0.9c1.6,0.1,2.4,0.4,2.4,0.9v0.3
		c-0.8,0.1-1.2,0.4-1.2,0.9v2.7l1.5-0.3l0.6,0.6v0.3h-0.6l3.4,2.7l-0.6,2.1h0.3l0.3,0.2c1.2-0.7,1.8-1.7,1.8-3h0.3l0.3,0.3
		c1.1-1.2,1.9-2.4,2.4-3.6l-1.2-0.3v-0.6l0.9,0.3c1,0,1.6-1.2,1.8-3.6h-0.6v-0.3h0.6l0.3,0.3c0.6-2.2,1-5.2,1.2-8.8h-0.6V140z
		 M346.2,137h0.9l-0.6,0.6h-0.3V137z M297.7,82.7v0.6l-0.6,0.6h-0.3l-0.6-0.6L297.7,82.7z M288.3,88.7H288l-0.6-0.6h0.9V88.7z
		 M289.5,114.1l-0.9-0.9l0.9-0.3l0.3,0.3L289.5,114.1z M292,118.9h-0.6l-0.6-0.6h1.2V118.9z M293.5,115.2l-0.6-0.6v-1.2h0.6V115.2z
		 M295.3,88.7h1.2l0.9,1.2h-0.6c0-0.4-0.5-0.6-1.5-0.6V88.7z M297.4,117h-1.5v-0.3l0.2-0.3l1.2,0.3V117z M296.4,107.4v-0.3l1.6-0.3
		l2.1,1.2L296.4,107.4z M303.4,109.8h-0.9v-0.6h0.9V109.8z M313.1,119.5h0.3v1.5h-0.3V119.5z M305.5,117h-1.2v-0.3l0.3-0.3l0.9,0.3
		V117z M312.8,122.8v0.6c-0.8,0.1-1.2,0.4-1.2,0.9h-1.2l-1.2-1.8l2.4,0.6l1.8-1.8l0.2,0.9L312.8,122.8z M317,113.4
		c0,1.5-1,3.1-3.1,4.5l0.3-0.9l-0.3-1.2h1.6c0.4-1.2,0.8-1.8,1.2-1.8l-0.3-1.5v-0.3h0.6V113.4z M322.7,118h0.6v0.6h-1.2L322.7,118z
		 M322.7,124.3V124l0.3-0.3l0.6,0.6H322.7z M325.7,121.9h-0.9v-0.6l0.6-0.6h0.3V121.9z M330.9,129.4h-0.6l0.3-0.9h0.6l0.3,0.3
		L330.9,129.4z M345,138.2l-0.9,1.2l-0.6-1.2H345z M344.7,143v1.2h-0.2l-0.6-0.6V143H344.7z M343.2,127.9l-0.6-0.6h0.2l0.6,0.6
		H343.2z M346.2,130.3v0.3h-0.9l-1.2-0.3v-0.6C344.6,130.1,345.3,130.3,346.2,130.3z M342.3,124.9h1.8v0.3l-1.8,0.3V124.9z
		 M342.3,132.1h-1.6v-0.6h0.9L342.3,132.1z M342,127l-1.2-0.3v-0.6l1.2,0.2V127z M341.1,122.8v0.9h-0.9l0.3-0.9H341.1z M335.4,126.1
		l-0.9-0.6h-0.3l-0.9,0.9l-1.5-0.6v-0.3h2.1v-1.2l0.9,0.6h1.5l0.6-1.2v-1.2l-0.6-0.9v-0.3l0.6-0.6h0.9l0.3,0.3l1.2-0.6l-0.6-1.5
		c1,0.5,1.6,1.1,1.8,1.8c-0.4,0-0.6,0.4-0.6,1.2l-1.5-0.3h-0.3l-0.3,1.5v0.3h2.1v2.1l-0.9-0.3h-0.2l-0.6,0.6v2.1l-0.6,0.6l-1.2-1.2
		v-0.9h0.9v-1.5C336.2,124.9,335.6,125.3,335.4,126.1z M339.9,129.1l-2.7,2.1h-0.3v-0.9c1,0,1.6-0.5,1.6-1.5L339.9,129.1z
		 M335,140.6l0.6,0.6h-0.3l-0.6-0.6H335z M335.7,144.8H335c-0.4,0-0.6-0.4-0.6-1.2c-1.4,0-2.1-0.3-2.1-0.9v-0.3h0.6l3.4,1.8
		L335.7,144.8z M336,137v-0.6l0.3,0.3c2-0.2,3.2-0.5,3.6-0.9h1.5v-0.6h1.8l-0.6,0.6v0.2l0.2,0.3v1.2L342,137h-2.1l-0.6,0.6v0.2
		l0.6,0.9h-0.6c-0.4,0-0.6-0.6-0.6-1.8H336z M342.9,146.6v0.6l-0.9-0.3v-0.3H342.9z M338.4,146.6h-0.3l-1.2-0.6v-0.6l1.6,0.6V146.6z
		 M340.5,145.4c-1.2-0.7-1.8-1.2-1.8-1.6v-0.3h0.2c0,0.4,0.5,0.6,1.6,0.6V145.4z M339.6,141.8v-0.6h0.9c0-0.8,0.2-1.2,0.6-1.2v1.8
		H339.6z M341.7,142.4v1.2h-0.6v-1.2H341.7z M344.7,153.8h-0.9v-0.6h0.9V153.8z M344.7,148.7c0,1-0.5,1.5-1.5,1.5l-1.5,1.2v-0.2
		h-0.6v-0.3l1.8-0.6c0-2,0.2-3,0.6-3h0.3v0.6c0.8,0,1.2,0.3,1.2,0.9H344.7z M345,145.7h-0.3v-1.2l0.9,0.6L345,145.7z"/>
	<polygon points="170.8,105.3 179.1,100.9 187.3,105.3 185.7,96.1 192.4,88.6 183.2,88.3 179.1,79.9 175,88.3 165.8,88.6 
		172.4,96.1 	"/>
	<polygon points="132.2,162.6 131.6,163.2 131.6,164.5 132.5,165.4 133.2,165.4 134.5,164.2 134.1,162.6 	"/>
	<rect x="136.7" y="165.1" width="1.9" height="0.6"/>
	<polygon points="128.7,154.6 128.4,154.6 128.1,155 128.7,157.8 129.7,157.8 129.4,156.2 129.7,155.3 	"/>
	<path d="M138.3,137.5v-0.3c-0.8,0-1.2-0.2-1.2-0.6c-1.7,0-2.6,0.7-2.6,2.2l0.6,0.6h2.6l0.3-0.9l-0.3-0.3v-0.7H138.3z"/>
	<path d="M129.1,153.1l-0.4-1.6c-0.6,0-0.9-0.2-0.9-0.6h-0.3v0.3l0.3,2.2h0.9L129.1,153.1z"/>
	<rect x="144.3" y="146.7" width="0.6" height="0.9"/>
	<polygon points="138.9,142.3 138.6,140.4 137.9,140.4 137.3,141 137.3,142.3 137.6,142.6 	"/>
	<path d="M146.8,156.2h0.6l0.4,0.4c0,2.1,0.2,3.1,0.6,3.1h1.6l0.3-0.3l-1.6-4.4c-0.4-3.6-1.3-5.4-2.9-5.4h-0.3l-0.9,0.6
		c0-1.9-0.4-2.9-1.3-2.9l-1.9,0.6l-0.3-0.3h-1.9l-0.3,0.3c0.3,1.9,1,2.9,1.9,2.9v0.6h2.5c0.7,0.9,1.7,1.5,2.9,1.6l0.3-0.3l0.9,1.6
		v0.3l-1.9-0.6h-0.9v0.6h-2.6v-0.3l0.3-1.6c-0.6,0-0.9-0.2-0.9-0.7c-1.9-0.7-2.9-1.2-2.9-1.6c-2.1-0.4-3.2-1.3-3.2-2.9h-2.9
		c0,0.6-0.3,1.2-0.9,1.9v0.3c0.6,0,0.9,0.3,0.9,0.9h1.9c0,0.6,0.4,0.9,1.2,0.9l-0.6,1l-1.6-0.7l0.3,1l-3.2,3.1v0.4
		c0.4,2.1,0.8,3.1,1.2,3.1h1.3l0.3-0.3l0.3,0.3l-0.3,1c0,1.7,1.4,2.5,4.1,2.5l0.3-0.3l-0.3-0.3c0.1-0.4,0.6-0.8,1.6-1.2
		c0-1.7-1.1-2.6-3.2-2.6v-0.9h0.7l1.6,0.9l2.6-0.3c0,0.4,0.5,1.1,1.6,1.9h0.9v-1l-0.3-0.3l1-0.6v0.6c0,1.1-0.3,2.1-1,2.9v0.6
		c0.7,0,1,0.2,1,0.6h-0.7v0.6c0,1.1,0.3,1.7,1,1.9h0.3c0-0.6,0.2-0.9,0.6-0.9c0.4,0,0.6,0.3,0.6,0.9h3.2l0.3-0.3l-0.3-0.9
		C147.7,164.1,147,161.3,146.8,156.2z M140.2,156.2l-0.4,0.4l-0.3-0.4h-0.3l-0.3,0.4h-0.3l-0.3-1c0.8-0.1,1.2-0.4,1.2-0.9h0.7V156.2
		z M145.9,156.6h-1.2v-0.4l0.9-0.3h0.3V156.6z"/>
	<polygon points="149,161.3 148.4,161.9 148.4,163.2 149.3,163.5 151.6,163.2 151.6,162.9 150,161.3 	"/>
	<polygon points="198.5,126.3 198.9,125.4 198.4,125.4 	"/>
	<path d="M234.3,114.4v0.7l0.7,0.7v0.7h-1.4l-0.7-0.7l-0.7,0.7v-2.1h-17.6v2.1l0.7,0.7h-0.7l-0.7,0.7c-1.1,0-1.8-1.2-2.1-3.5h-9.1
		l-0.8,0.7l-0.7-0.7h-11.9c0,3.3-0.7,5-2.1,5h-0.7v-2.2l1.4-1.4l-1.4-1.4h-16.9l-1.5,1.4v2.9h1.5v2.1h-1.5v5.3l0.7,0.7l-0.7,0.8v5.5
		l1.5,1.4h26l2.1-1.4l2.1,1.4H240c0-1.4,0.5-2.1,1.4-2.1v2.1h18.2l1.5-1.4v-17.3l-1.5-1.4H234.3z M177.4,128.3H176v-1.5h2.9
		L177.4,128.3z M180.3,125.4l-2.1,0.7h-0.8v-0.4l-0.7-0.9l0,0.1l-2-1.3l-0.1,0.1h-0.7l-0.7-0.7v-0.8l0.7-0.7c0.7,0.4,1.4,0.6,2,0.8
		l0.1-0.1h0.7l0.3,0.3c1.4,0.2,2.5,0.4,3.3,2.3V125.4z M181.7,132.4H181v-2.8h0.7l0.7,0.7L181.7,132.4z M184.4,124.3l-1.4,1.4v-2.8
		h1.4V124.3z M199.9,125.4l-1.4,1.4h-1.4v-1.4h1.2l-0.5-2.5h1.4l1.4-1.4l-1.7,3.9H199.9z M215.4,129l-2.1,2.1h-0.7l1.4-4.3h1.4V129z
		 M225.2,133.8l-1.4-1.4V131h1.4V133.8z M226.6,126.3h-2.1l2.1-2.1V126.3z M233.7,124.9l-0.7-0.7c0,0.9-0.4,0.1-1.1-1l-0.3-0.3h-3
		l-0.4,3.4l-0.7-3.4h1.1l0.3-2.1c1.4,0,2.4,1.3,3.1,2.4l1.1,1c0,0,0,0,0,0h0.7V124.9z"/>
	<polygon points="305.8,165.3 306.7,165.6 306.7,165.3 307,165 307,164.7 305.8,165 	"/>
	<polygon points="250.5,79.9 246.3,88.3 237.1,88.6 243.8,96.1 242.2,105.3 250.5,100.9 258.7,105.3 257.1,96.1 263.8,88.6 
		254.6,88.3 	"/>
	<polygon points="145.9,146.7 145.2,147.4 145.2,148.6 145.9,149.3 146.5,149.3 147.1,148.6 147.1,147.4 146.5,146.7 	"/>
	<polygon points="308.2,165.6 309.1,165.9 309.5,165.9 309.5,165.3 308.2,165.3 	"/>
	<path d="M252.2,149.5l0.4,1.3c0.2,0,0.5,0,0.7,0l0.6-0.4L252.2,149.5z"/>
	<path d="M177,122.4c-0.3-0.1-0.7-0.1-1-0.2l-1.3,1.3l0.1,0l0.6-0.6l1.4,1.9l0.7-2L177,122.4z"/>
	<path d="M242.8,140.7l-1.4,1.4l1.4,1.4v2.2h-0.7c-1.4,0-2.1-1.7-2.1-5h-11.9l-0.7,0.7l-0.8-0.7h-9.1c-0.3,2.3-1,3.5-2.1,3.5
		l-0.7-0.7H214l0.7-0.7v-2.1h-17.6v2.1l-0.7-0.7l-0.7,0.7h-1.4V142l0.7-0.7v-0.7h-25.3l-1.5,1.4v18.6l1.5,1.4H188V160
		c0.9,0,1.4,0.7,1.4,2.1h40.1l2.1-1.4l2.1,1.4h26l1.5-1.4v-5.5l-0.7-0.8l0.7-0.7V147h-1.5v-2.1h1.5V142l-1.5-1.4H242.8z
		 M196.5,150.9l-0.7,0.3v-0.7h0.7C196.5,150.7,196.5,150.8,196.5,150.9l1.3-0.5h0.2c0.7-0.4,1.5-0.8,2.6-0.8l0.7-0.8l0.7,1.6h-3.9
		C197.2,151,196.7,151.5,196.5,150.9z M202.8,150.1h2.1l-2.1,1.7V150.1z M205.6,160l-1.4,1.4v-2.8h1.4V160z M216.1,158.6l-2.1-2.1
		v-2.2h1.4l1.4,4.3H216.1z M228.8,150.3l2.1-1.5l0.7,1.6h-1.4L228.8,150.3z M232.3,154.3h-1.4l-1.4-1.4h2.8V154.3z M246.4,150.4
		h-0.6l-0.8,1.4v-1.4h0.8l0.6-1V150.4z M248.5,160h-0.7l-0.7-2.1l0.7-0.7h0.7V160z M253.4,155.8H252l-1.5-1.5h2.9V155.8z
		 M256.2,150.9l-0.2-0.2l-0.5,0.5h-0.7l-0.5-0.5c-0.4,0.1-0.7,0.1-1,0.1l-0.6,0.4l-0.1-0.4c-0.2,0-0.4,0-0.6,0v2.9h-0.8l-2.1-0.7
		v-0.7c0.7-1.7,1.7-1.6,2.9-1.5v-1.3l0.1,0.1l-0.1-0.4l0.7-0.7h0.7l1.4,1.4l-0.9,0.6l0.2,0.1l0.2,0.2c0.4-0.1,0.8-0.2,1.2-0.5
		l0.5,0.5l0.2-0.2V150.9z"/>
	<polygon points="127.5,91 126.9,91.6 127.8,91.6 127.8,91 	"/>
</g>
</svg>
